<svg xmlns="http://www.w3.org/2000/svg" xmlns:xlink="http://www.w3.org/1999/xlink" width="30" height="28" version="1.1" viewBox="0 0 30 28"><defs><path id="path-1" d="M.67 0h28.8v30H.67z"/></defs><g id="Page-1" fill="none" fill-rule="evenodd" stroke="none" stroke-width="1"><g id="Standard-Delivery-White-Theme" transform="translate(0 -1)"><mask id="mask-2" fill="#fff"><use xlink:href="#path-1"/></mask><path id="Shape" fill="#353535" fill-rule="nonzero" d="M28.915 6.913 15.246 1.582a.58.58 0 0 0-.42 0L1.064 6.95c-.242.074-.534.471-.318.878V22.88c0 .266.162.503.403.59l13.544 4.87c.08.047.143.09.285.11.199.027.325-.032.326-.032l13.763-4.948a.622.622 0 0 0 .404-.59V7.534c.005-.299-.332-.538-.555-.62Zm-1.821.621-12.022 4.69-3.607-1.407 11.45-4.913 4.179 1.63Zm-5.826-2.272L9.236 10.424l-.296 2.998-2.24-.94V9.699l12.48-5.252 2.088.815ZM15.036 2.83l2.486.97L5.956 8.667 3.014 7.52l12.022-4.689ZM1.942 8.461l3.561 1.39v3.472l4.465 1.874.343-3.472 4.198 1.638v13.592L1.942 22.437V8.461Zm26.33 13.976-12.566 4.518v-13.62l12.567-4.902v14.004Z" mask="url(#mask-2)"/></g></g></svg>